<svg width="486" height="396" viewBox="0 0 486 396" fill="none" xmlns="http://www.w3.org/2000/svg">
<path opacity="0.5" d="M60.0832 182.681C51.4127 182.638 44.2791 189.645 44.9811 198.287C47.1374 224.834 55.0817 250.656 68.3304 273.907C84.1766 301.717 107.054 324.873 134.67 341.054C162.286 357.236 193.67 365.875 225.677 366.105C257.683 366.334 289.188 358.147 317.034 342.364C344.879 326.58 368.087 303.755 384.33 276.176C400.574 248.597 409.284 217.232 409.586 185.226C409.887 153.22 401.771 121.697 386.051 93.8157C372.907 70.5049 354.834 50.425 333.164 34.9385C326.11 29.897 316.434 32.4182 312.017 39.8793C307.6 47.3404 310.126 56.9065 317.089 62.0732C334.065 74.6695 348.261 90.7227 358.7 109.237C371.718 132.324 378.438 158.427 378.188 184.93C377.938 211.432 370.726 237.404 357.275 260.241C343.825 283.078 324.608 301.978 301.55 315.048C278.493 328.117 252.405 334.897 225.902 334.706C199.399 334.516 173.411 327.363 150.544 313.964C127.677 300.564 108.733 281.39 95.6114 258.362C85.0886 239.895 78.6068 219.469 76.5195 198.434C75.6633 189.806 68.7536 182.724 60.0832 182.681Z" fill="#3BB7DD"/>
<path opacity="0.5" d="M291.426 29.5373C294.773 21.539 291.018 12.2718 282.762 9.62351C264.979 3.91932 246.396 0.967331 227.658 0.898528C203.678 0.810461 179.916 5.44648 157.727 14.5419C135.539 23.6373 115.359 37.0139 98.3407 53.9081C85.0428 67.1088 73.8782 82.255 65.2153 98.7999C61.1934 106.481 65.0234 115.718 73.0217 119.065C81.02 122.413 90.147 118.593 94.3054 110.984C101.287 98.2101 110.091 86.4865 120.461 76.1919C134.554 62.2026 151.263 51.1261 169.637 43.5946C188.01 36.0632 207.686 32.2243 227.543 32.2972C242.155 32.3509 256.655 34.5221 270.594 38.7204C278.896 41.2209 288.078 37.5357 291.426 29.5373Z" fill="#FFAB00"/>
<rect y="77.7505" width="454.644" height="210.849" rx="19.7671" fill="#172B4D"/>
<path d="M81.9146 198.501V145.789H85.2914V198.501H81.9146ZM92.4776 162.138C92.258 160.189 91.352 158.679 89.7596 157.608C88.1673 156.524 86.1631 155.981 83.7471 155.981C82.0175 155.981 80.5212 156.256 79.2583 156.805C77.9954 157.34 77.014 158.082 76.3139 159.029C75.6275 159.962 75.2843 161.026 75.2843 162.22C75.2843 163.222 75.5177 164.087 75.9844 164.815C76.4649 165.542 77.0895 166.153 77.8582 166.647C78.6406 167.128 79.478 167.533 80.3702 167.862C81.2625 168.178 82.1205 168.439 82.9441 168.645L87.0622 169.715C88.4075 170.045 89.7871 170.491 91.201 171.054C92.6149 171.617 93.9258 172.358 95.1338 173.278C96.3418 174.197 97.3164 175.337 98.0577 176.696C98.8127 178.055 99.1902 179.681 99.1902 181.576C99.1902 183.964 98.5725 186.085 97.337 187.938C96.1153 189.791 94.3376 191.253 92.004 192.324C89.6841 193.395 86.8769 193.93 83.5824 193.93C80.4252 193.93 77.6934 193.429 75.3873 192.427C73.0811 191.425 71.276 190.004 69.9719 188.165C68.6678 186.311 67.9472 184.115 67.8099 181.576H74.193C74.3166 183.099 74.8107 184.369 75.6756 185.385C76.5541 186.387 77.6729 187.135 79.0318 187.629C80.4046 188.11 81.9077 188.35 83.5412 188.35C85.3395 188.35 86.9387 188.069 88.3389 187.506C89.7528 186.929 90.8647 186.133 91.6746 185.117C92.4845 184.088 92.8894 182.887 92.8894 181.514C92.8894 180.265 92.5325 179.242 91.8187 178.446C91.1186 177.65 90.1646 176.991 88.9566 176.469C87.7623 175.947 86.4102 175.488 84.9002 175.09L79.9173 173.731C76.5404 172.811 73.8636 171.459 71.8869 169.674C69.9239 167.89 68.9424 165.529 68.9424 162.591C68.9424 160.161 69.6013 158.04 70.9191 156.228C72.2369 154.416 74.0214 153.009 76.2727 152.007C78.5239 150.991 81.0635 150.484 83.8913 150.484C86.7465 150.484 89.2655 150.985 91.4481 151.987C93.6444 152.989 95.374 154.368 96.6369 156.125C97.8998 157.869 98.5587 159.873 98.6137 162.138H92.4776ZM120.939 193.807C119.059 193.779 117.205 193.436 115.38 192.777C113.568 192.118 111.92 191.02 110.438 189.482C108.955 187.945 107.768 185.879 106.876 183.285C105.997 180.69 105.558 177.451 105.558 173.566C105.558 169.887 105.922 166.62 106.649 163.765C107.39 160.909 108.454 158.5 109.841 156.537C111.227 154.561 112.902 153.057 114.865 152.028C116.828 150.998 119.031 150.484 121.475 150.484C123.987 150.484 126.217 150.978 128.167 151.966C130.116 152.954 131.694 154.32 132.902 156.064C134.124 157.807 134.9 159.791 135.229 162.014H128.949C128.523 160.257 127.679 158.823 126.416 157.711C125.153 156.599 123.506 156.043 121.475 156.043C118.386 156.043 115.977 157.388 114.247 160.079C112.531 162.769 111.666 166.51 111.653 171.301H111.962C112.689 170.107 113.581 169.091 114.638 168.253C115.709 167.402 116.903 166.75 118.221 166.297C119.553 165.831 120.953 165.597 122.422 165.597C124.865 165.597 127.075 166.194 129.052 167.389C131.042 168.569 132.628 170.203 133.808 172.289C134.989 174.376 135.579 176.764 135.579 179.455C135.579 182.145 134.968 184.582 133.747 186.764C132.539 188.947 130.836 190.677 128.64 191.953C126.444 193.216 123.877 193.834 120.939 193.807ZM120.919 188.453C122.538 188.453 123.987 188.055 125.263 187.259C126.54 186.462 127.549 185.392 128.29 184.047C129.031 182.701 129.402 181.198 129.402 179.537C129.402 177.917 129.038 176.442 128.311 175.11C127.597 173.779 126.609 172.722 125.346 171.939C124.096 171.157 122.669 170.765 121.063 170.765C119.841 170.765 118.709 170.999 117.665 171.466C116.636 171.932 115.73 172.577 114.947 173.401C114.165 174.225 113.547 175.172 113.094 176.243C112.655 177.3 112.435 178.418 112.435 179.599C112.435 181.178 112.799 182.639 113.527 183.985C114.268 185.33 115.277 186.414 116.553 187.238C117.844 188.048 119.299 188.453 120.919 188.453ZM143.079 193.23V188.618L157.349 173.833C158.872 172.227 160.129 170.82 161.117 169.612C162.119 168.391 162.867 167.231 163.361 166.133C163.855 165.034 164.103 163.868 164.103 162.632C164.103 161.232 163.773 160.024 163.114 159.008C162.455 157.979 161.556 157.189 160.417 156.64C159.277 156.077 157.994 155.796 156.566 155.796C155.056 155.796 153.739 156.105 152.613 156.723C151.487 157.34 150.622 158.212 150.018 159.338C149.414 160.463 149.112 161.781 149.112 163.291H143.038C143.038 160.724 143.628 158.48 144.809 156.558C145.99 154.636 147.609 153.147 149.668 152.09C151.728 151.019 154.068 150.484 156.69 150.484C159.339 150.484 161.673 151.012 163.691 152.069C165.722 153.112 167.308 154.54 168.447 156.352C169.587 158.15 170.156 160.182 170.156 162.447C170.156 164.012 169.861 165.542 169.271 167.039C168.694 168.535 167.685 170.203 166.244 172.042C164.803 173.868 162.798 176.085 160.231 178.693L151.851 187.465V187.773H170.836V193.23H143.079ZM186.732 187.465L186.423 189.709C186.217 191.356 185.867 193.072 185.373 194.857C184.892 196.655 184.391 198.323 183.87 199.86C183.362 201.398 182.943 202.619 182.614 203.525H178.248C178.427 202.674 178.674 201.521 178.99 200.066C179.305 198.625 179.614 197.012 179.916 195.227C180.218 193.443 180.445 191.624 180.596 189.771L180.802 187.465H186.732ZM208.496 193.93C205.243 193.916 202.463 193.058 200.157 191.356C197.851 189.654 196.087 187.176 194.865 183.923C193.643 180.67 193.033 176.751 193.033 172.166C193.033 167.594 193.643 163.689 194.865 160.449C196.101 157.21 197.871 154.739 200.178 153.037C202.497 151.335 205.27 150.484 208.496 150.484C211.722 150.484 214.488 151.342 216.794 153.057C219.1 154.76 220.864 157.23 222.086 160.47C223.322 163.696 223.939 167.594 223.939 172.166C223.939 176.764 223.328 180.69 222.107 183.944C220.885 187.183 219.121 189.661 216.815 191.377C214.509 193.079 211.736 193.93 208.496 193.93ZM208.496 188.432C211.351 188.432 213.582 187.039 215.188 184.252C216.808 181.466 217.618 177.437 217.618 172.166C217.618 168.665 217.247 165.707 216.506 163.291C215.778 160.861 214.728 159.022 213.356 157.773C211.997 156.51 210.377 155.878 208.496 155.878C205.655 155.878 203.424 157.279 201.804 160.079C200.184 162.879 199.368 166.908 199.354 172.166C199.354 175.68 199.718 178.652 200.445 181.081C201.186 183.497 202.237 185.33 203.596 186.579C204.955 187.815 206.588 188.432 208.496 188.432ZM245.925 193.93C242.672 193.916 239.892 193.058 237.586 191.356C235.28 189.654 233.516 187.176 232.294 183.923C231.072 180.67 230.461 176.751 230.461 172.166C230.461 167.594 231.072 163.689 232.294 160.449C233.529 157.21 235.3 154.739 237.606 153.037C239.926 151.335 242.699 150.484 245.925 150.484C249.151 150.484 251.917 151.342 254.223 153.057C256.529 154.76 258.293 157.23 259.515 160.47C260.75 163.696 261.368 167.594 261.368 172.166C261.368 176.764 260.757 180.69 259.536 183.944C258.314 187.183 256.55 189.661 254.244 191.377C251.938 193.079 249.165 193.93 245.925 193.93ZM245.925 188.432C248.78 188.432 251.011 187.039 252.617 184.252C254.237 181.466 255.047 177.437 255.047 172.166C255.047 168.665 254.676 165.707 253.935 163.291C253.207 160.861 252.157 159.022 250.784 157.773C249.425 156.51 247.806 155.878 245.925 155.878C243.084 155.878 240.853 157.279 239.233 160.079C237.613 162.879 236.796 166.908 236.783 172.166C236.783 175.68 237.147 178.652 237.874 181.081C238.615 183.497 239.665 185.33 241.024 186.579C242.383 187.815 244.017 188.432 245.925 188.432ZM283.395 193.807C281.514 193.779 279.661 193.436 277.836 192.777C276.024 192.118 274.376 191.02 272.894 189.482C271.411 187.945 270.224 185.879 269.332 183.285C268.453 180.69 268.014 177.451 268.014 173.566C268.014 169.887 268.378 166.62 269.105 163.765C269.846 160.909 270.91 158.5 272.297 156.537C273.683 154.561 275.358 153.057 277.321 152.028C279.284 150.998 281.487 150.484 283.93 150.484C286.443 150.484 288.673 150.978 290.622 151.966C292.572 152.954 294.15 154.32 295.358 156.064C296.58 157.807 297.356 159.791 297.685 162.014H291.405C290.979 160.257 290.135 158.823 288.872 157.711C287.609 156.599 285.962 156.043 283.93 156.043C280.842 156.043 278.433 157.388 276.703 160.079C274.987 162.769 274.122 166.51 274.109 171.301H274.418C275.145 170.107 276.037 169.091 277.094 168.253C278.165 167.402 279.359 166.75 280.677 166.297C282.009 165.831 283.409 165.597 284.878 165.597C287.321 165.597 289.531 166.194 291.508 167.389C293.498 168.569 295.084 170.203 296.264 172.289C297.445 174.376 298.035 176.764 298.035 179.455C298.035 182.145 297.424 184.582 296.203 186.764C294.995 188.947 293.292 190.677 291.096 191.953C288.9 193.216 286.333 193.834 283.395 193.807ZM283.374 188.453C284.994 188.453 286.443 188.055 287.719 187.259C288.996 186.462 290.005 185.392 290.746 184.047C291.487 182.701 291.858 181.198 291.858 179.537C291.858 177.917 291.494 176.442 290.767 175.11C290.053 173.779 289.064 172.722 287.802 171.939C286.552 171.157 285.125 170.765 283.519 170.765C282.297 170.765 281.164 170.999 280.121 171.466C279.092 171.932 278.186 172.577 277.403 173.401C276.621 174.225 276.003 175.172 275.55 176.243C275.111 177.3 274.891 178.418 274.891 179.599C274.891 181.178 275.255 182.639 275.982 183.985C276.724 185.33 277.733 186.414 279.009 187.238C280.3 188.048 281.755 188.453 283.374 188.453ZM307.749 193.621C306.623 193.621 305.655 193.223 304.846 192.427C304.036 191.617 303.631 190.642 303.631 189.503C303.631 188.377 304.036 187.417 304.846 186.62C305.655 185.81 306.623 185.405 307.749 185.405C308.874 185.405 309.842 185.81 310.652 186.62C311.462 187.417 311.867 188.377 311.867 189.503C311.867 190.258 311.675 190.951 311.29 191.583C310.92 192.2 310.426 192.695 309.808 193.065C309.19 193.436 308.504 193.621 307.749 193.621ZM333.184 193.93C329.93 193.916 327.15 193.058 324.844 191.356C322.538 189.654 320.774 187.176 319.552 183.923C318.331 180.67 317.72 176.751 317.72 172.166C317.72 167.594 318.331 163.689 319.552 160.449C320.788 157.21 322.559 154.739 324.865 153.037C327.185 151.335 329.958 150.484 333.184 150.484C336.409 150.484 339.175 151.342 341.482 153.057C343.788 154.76 345.552 157.23 346.773 160.47C348.009 163.696 348.627 167.594 348.627 172.166C348.627 176.764 348.016 180.69 346.794 183.944C345.572 187.183 343.808 189.661 341.502 191.377C339.196 193.079 336.423 193.93 333.184 193.93ZM333.184 188.432C336.039 188.432 338.269 187.039 339.876 184.252C341.495 181.466 342.305 177.437 342.305 172.166C342.305 168.665 341.935 165.707 341.193 163.291C340.466 160.861 339.416 159.022 338.043 157.773C336.684 156.51 335.064 155.878 333.184 155.878C330.342 155.878 328.111 157.279 326.492 160.079C324.872 162.879 324.055 166.908 324.041 172.166C324.041 175.68 324.405 178.652 325.133 181.081C325.874 183.497 326.924 185.33 328.283 186.579C329.642 187.815 331.275 188.432 333.184 188.432ZM370.612 193.93C367.359 193.916 364.579 193.058 362.273 191.356C359.967 189.654 358.203 187.176 356.981 183.923C355.76 180.67 355.149 176.751 355.149 172.166C355.149 167.594 355.76 163.689 356.981 160.449C358.217 157.21 359.988 154.739 362.294 153.037C364.614 151.335 367.386 150.484 370.612 150.484C373.838 150.484 376.604 151.342 378.91 153.057C381.217 154.76 382.981 157.23 384.202 160.47C385.438 163.696 386.055 167.594 386.055 172.166C386.055 176.764 385.445 180.69 384.223 183.944C383.001 187.183 381.237 189.661 378.931 191.377C376.625 193.079 373.852 193.93 370.612 193.93ZM370.612 188.432C373.468 188.432 375.698 187.039 377.304 184.252C378.924 181.466 379.734 177.437 379.734 172.166C379.734 168.665 379.363 165.707 378.622 163.291C377.895 160.861 376.845 159.022 375.472 157.773C374.113 156.51 372.493 155.878 370.612 155.878C367.771 155.878 365.54 157.279 363.92 160.079C362.301 162.879 361.484 166.908 361.47 172.166C361.47 175.68 361.834 178.652 362.561 181.081C363.303 183.497 364.353 185.33 365.712 186.579C367.071 187.815 368.704 188.432 370.612 188.432Z" fill="white"/>
<path d="M141.069 127.014H139L144.983 110.721H147.019L153.002 127.014H150.933L146.065 113.298H145.937L141.069 127.014ZM141.832 120.649H150.17V122.399H141.832V120.649ZM160.249 127.268C159.104 127.268 158.117 126.998 157.29 126.457C156.463 125.916 155.826 125.171 155.381 124.221C154.935 123.272 154.712 122.187 154.712 120.967C154.712 119.726 154.94 118.631 155.397 117.682C155.858 116.727 156.5 115.982 157.322 115.446C158.149 114.905 159.114 114.635 160.218 114.635C161.077 114.635 161.851 114.794 162.541 115.112C163.23 115.43 163.795 115.876 164.235 116.449C164.675 117.021 164.948 117.69 165.055 118.453H163.177C163.034 117.897 162.716 117.403 162.222 116.974C161.734 116.539 161.077 116.321 160.249 116.321C159.517 116.321 158.876 116.512 158.324 116.894C157.778 117.271 157.351 117.804 157.043 118.493C156.741 119.177 156.59 119.981 156.59 120.904C156.59 121.848 156.738 122.67 157.035 123.37C157.338 124.07 157.762 124.614 158.308 125.001C158.86 125.388 159.507 125.582 160.249 125.582C160.737 125.582 161.18 125.497 161.578 125.327C161.976 125.157 162.313 124.913 162.588 124.595C162.864 124.277 163.06 123.895 163.177 123.449H165.055C164.948 124.171 164.686 124.82 164.267 125.399C163.853 125.971 163.304 126.427 162.62 126.767C161.941 127.101 161.151 127.268 160.249 127.268ZM172.763 127.268C171.618 127.268 170.631 126.998 169.804 126.457C168.977 125.916 168.34 125.171 167.895 124.221C167.449 123.272 167.226 122.187 167.226 120.967C167.226 119.726 167.454 118.631 167.911 117.682C168.372 116.727 169.014 115.982 169.836 115.446C170.663 114.905 171.628 114.635 172.732 114.635C173.591 114.635 174.365 114.794 175.055 115.112C175.744 115.43 176.309 115.876 176.749 116.449C177.189 117.021 177.462 117.69 177.569 118.453H175.691C175.548 117.897 175.23 117.403 174.736 116.974C174.248 116.539 173.591 116.321 172.763 116.321C172.032 116.321 171.39 116.512 170.838 116.894C170.292 117.271 169.865 117.804 169.557 118.493C169.255 119.177 169.104 119.981 169.104 120.904C169.104 121.848 169.252 122.67 169.549 123.37C169.852 124.07 170.276 124.614 170.822 125.001C171.374 125.388 172.021 125.582 172.763 125.582C173.251 125.582 173.694 125.497 174.092 125.327C174.49 125.157 174.827 124.913 175.102 124.595C175.378 124.277 175.574 123.895 175.691 123.449H177.569C177.462 124.171 177.2 124.82 176.781 125.399C176.367 125.971 175.818 126.427 175.134 126.767C174.455 127.101 173.665 127.268 172.763 127.268ZM185.277 127.268C184.174 127.268 183.206 127.006 182.374 126.481C181.546 125.955 180.899 125.221 180.433 124.277C179.971 123.333 179.74 122.23 179.74 120.967C179.74 119.694 179.971 118.583 180.433 117.634C180.899 116.685 181.546 115.947 182.374 115.422C183.206 114.897 184.174 114.635 185.277 114.635C186.381 114.635 187.346 114.897 188.173 115.422C189.006 115.947 189.653 116.685 190.114 117.634C190.581 118.583 190.814 119.694 190.814 120.967C190.814 122.23 190.581 123.333 190.114 124.277C189.653 125.221 189.006 125.955 188.173 126.481C187.346 127.006 186.381 127.268 185.277 127.268ZM185.277 125.582C186.115 125.582 186.805 125.367 187.346 124.937C187.887 124.508 188.287 123.943 188.547 123.243C188.807 122.543 188.937 121.784 188.937 120.967C188.937 120.151 188.807 119.39 188.547 118.684C188.287 117.979 187.887 117.409 187.346 116.974C186.805 116.539 186.115 116.321 185.277 116.321C184.439 116.321 183.75 116.539 183.209 116.974C182.668 117.409 182.268 117.979 182.008 118.684C181.748 119.39 181.618 120.151 181.618 120.967C181.618 121.784 181.748 122.543 182.008 123.243C182.268 123.943 182.668 124.508 183.209 124.937C183.75 125.367 184.439 125.582 185.277 125.582ZM201.381 122.017V114.794H203.259V127.014H201.381V124.945H201.254C200.968 125.566 200.522 126.093 199.918 126.528C199.313 126.958 198.549 127.173 197.626 127.173C196.863 127.173 196.184 127.006 195.59 126.671C194.996 126.332 194.529 125.823 194.19 125.144C193.85 124.46 193.68 123.598 193.68 122.558V114.794H195.558V122.431C195.558 123.322 195.807 124.033 196.306 124.563C196.81 125.094 197.451 125.359 198.231 125.359C198.698 125.359 199.172 125.239 199.655 125.001C200.143 124.762 200.551 124.396 200.88 123.903C201.214 123.41 201.381 122.781 201.381 122.017ZM208.575 119.663V127.014H206.698V114.794H208.512V116.703H208.671C208.957 116.083 209.392 115.584 209.975 115.208C210.559 114.826 211.312 114.635 212.235 114.635C213.062 114.635 213.786 114.804 214.407 115.144C215.027 115.478 215.51 115.987 215.854 116.671C216.199 117.35 216.372 118.209 216.372 119.249V127.014H214.494V119.376C214.494 118.416 214.245 117.668 213.746 117.133C213.248 116.592 212.564 116.321 211.694 116.321C211.094 116.321 210.559 116.451 210.087 116.711C209.62 116.971 209.251 117.35 208.981 117.849C208.71 118.347 208.575 118.952 208.575 119.663ZM225.117 114.794V116.385H218.784V114.794H225.117ZM220.63 111.866H222.507V123.513C222.507 124.043 222.584 124.441 222.738 124.706C222.897 124.966 223.099 125.141 223.343 125.232C223.592 125.316 223.854 125.359 224.13 125.359C224.337 125.359 224.507 125.348 224.639 125.327C224.772 125.3 224.878 125.279 224.958 125.263L225.339 126.95C225.212 126.998 225.034 127.045 224.806 127.093C224.578 127.146 224.289 127.173 223.939 127.173C223.409 127.173 222.889 127.059 222.38 126.831C221.876 126.603 221.457 126.255 221.123 125.788C220.794 125.322 220.63 124.733 220.63 124.022V111.866ZM234.496 127.014V110.721H240.192C241.327 110.721 242.263 110.917 243.001 111.309C243.738 111.697 244.287 112.219 244.647 112.877C245.008 113.529 245.188 114.253 245.188 115.048C245.188 115.749 245.064 116.327 244.815 116.783C244.571 117.239 244.247 117.6 243.844 117.865C243.446 118.13 243.014 118.326 242.547 118.453V118.613C243.046 118.644 243.547 118.819 244.051 119.138C244.555 119.456 244.976 119.912 245.316 120.506C245.655 121.1 245.825 121.827 245.825 122.686C245.825 123.503 245.639 124.237 245.268 124.889C244.897 125.542 244.311 126.059 243.51 126.441C242.709 126.823 241.667 127.014 240.383 127.014H234.496ZM236.469 125.263H240.383C241.672 125.263 242.587 125.014 243.128 124.516C243.674 124.012 243.947 123.402 243.947 122.686C243.947 122.134 243.807 121.625 243.526 121.158C243.245 120.686 242.844 120.31 242.324 120.029C241.805 119.742 241.189 119.599 240.479 119.599H236.469V125.263ZM236.469 117.881H240.129C240.723 117.881 241.258 117.764 241.736 117.531C242.218 117.297 242.6 116.968 242.881 116.544C243.168 116.12 243.311 115.621 243.311 115.048C243.311 114.332 243.062 113.725 242.563 113.227C242.065 112.723 241.274 112.471 240.192 112.471H236.469V117.881ZM252.408 127.3C251.634 127.3 250.931 127.154 250.3 126.862C249.669 126.565 249.168 126.138 248.796 125.582C248.425 125.019 248.239 124.34 248.239 123.545C248.239 122.845 248.377 122.277 248.653 121.842C248.929 121.402 249.297 121.058 249.759 120.808C250.22 120.559 250.729 120.373 251.286 120.251C251.849 120.124 252.413 120.023 252.981 119.949C253.723 119.854 254.325 119.782 254.787 119.734C255.254 119.681 255.593 119.594 255.805 119.472C256.023 119.35 256.131 119.138 256.131 118.835V118.772C256.131 117.987 255.916 117.377 255.487 116.942C255.063 116.507 254.418 116.29 253.554 116.29C252.657 116.29 251.955 116.486 251.445 116.878C250.936 117.271 250.578 117.69 250.371 118.135L248.589 117.499C248.908 116.756 249.332 116.178 249.862 115.764C250.398 115.345 250.981 115.054 251.613 114.889C252.249 114.72 252.875 114.635 253.49 114.635C253.883 114.635 254.333 114.682 254.842 114.778C255.357 114.868 255.853 115.056 256.33 115.343C256.813 115.629 257.213 116.061 257.531 116.64C257.85 117.218 258.009 117.992 258.009 118.963V127.014H256.131V125.359H256.036C255.909 125.624 255.696 125.908 255.399 126.21C255.102 126.512 254.707 126.77 254.214 126.982C253.721 127.194 253.119 127.3 252.408 127.3ZM252.695 125.613C253.437 125.613 254.063 125.468 254.572 125.176C255.086 124.884 255.474 124.508 255.734 124.046C255.999 123.585 256.131 123.099 256.131 122.59V120.872C256.052 120.967 255.877 121.055 255.606 121.134C255.341 121.209 255.033 121.275 254.683 121.333C254.339 121.386 254.002 121.434 253.673 121.477C253.35 121.514 253.087 121.545 252.885 121.572C252.397 121.636 251.941 121.739 251.517 121.882C251.098 122.02 250.759 122.23 250.499 122.511C250.244 122.787 250.117 123.163 250.117 123.64C250.117 124.293 250.358 124.786 250.841 125.12C251.329 125.449 251.947 125.613 252.695 125.613ZM263.313 110.721V127.014H261.436V110.721H263.313ZM270.348 127.3C269.573 127.3 268.871 127.154 268.24 126.862C267.608 126.565 267.107 126.138 266.736 125.582C266.365 125.019 266.179 124.34 266.179 123.545C266.179 122.845 266.317 122.277 266.593 121.842C266.869 121.402 267.237 121.058 267.699 120.808C268.16 120.559 268.669 120.373 269.226 120.251C269.788 120.124 270.353 120.023 270.921 119.949C271.663 119.854 272.265 119.782 272.726 119.734C273.193 119.681 273.533 119.594 273.745 119.472C273.962 119.35 274.071 119.138 274.071 118.835V118.772C274.071 117.987 273.856 117.377 273.427 116.942C273.002 116.507 272.358 116.29 271.493 116.29C270.597 116.29 269.894 116.486 269.385 116.878C268.876 117.271 268.518 117.69 268.311 118.135L266.529 117.499C266.847 116.756 267.272 116.178 267.802 115.764C268.338 115.345 268.921 115.054 269.552 114.889C270.189 114.72 270.815 114.635 271.43 114.635C271.822 114.635 272.273 114.682 272.782 114.778C273.297 114.868 273.793 115.056 274.27 115.343C274.753 115.629 275.153 116.061 275.471 116.64C275.789 117.218 275.948 117.992 275.948 118.963V127.014H274.071V125.359H273.976C273.848 125.624 273.636 125.908 273.339 126.21C273.042 126.512 272.647 126.77 272.154 126.982C271.66 127.194 271.058 127.3 270.348 127.3ZM270.634 125.613C271.377 125.613 272.003 125.468 272.512 125.176C273.026 124.884 273.413 124.508 273.673 124.046C273.938 123.585 274.071 123.099 274.071 122.59V120.872C273.991 120.967 273.816 121.055 273.546 121.134C273.281 121.209 272.973 121.275 272.623 121.333C272.278 121.386 271.942 121.434 271.613 121.477C271.289 121.514 271.027 121.545 270.825 121.572C270.337 121.636 269.881 121.739 269.457 121.882C269.038 122.02 268.698 122.23 268.438 122.511C268.184 122.787 268.057 123.163 268.057 123.64C268.057 124.293 268.298 124.786 268.781 125.12C269.268 125.449 269.886 125.613 270.634 125.613ZM281.253 119.663V127.014H279.375V114.794H281.189V116.703H281.348C281.635 116.083 282.07 115.584 282.653 115.208C283.236 114.826 283.99 114.635 284.912 114.635C285.74 114.635 286.464 114.804 287.084 115.144C287.705 115.478 288.187 115.987 288.532 116.671C288.877 117.35 289.049 118.209 289.049 119.249V127.014H287.172V119.376C287.172 118.416 286.922 117.668 286.424 117.133C285.925 116.592 285.241 116.321 284.371 116.321C283.772 116.321 283.236 116.451 282.764 116.711C282.298 116.971 281.929 117.35 281.659 117.849C281.388 118.347 281.253 118.952 281.253 119.663ZM297.444 127.268C296.299 127.268 295.312 126.998 294.485 126.457C293.657 125.916 293.021 125.171 292.576 124.221C292.13 123.272 291.907 122.187 291.907 120.967C291.907 119.726 292.135 118.631 292.591 117.682C293.053 116.727 293.695 115.982 294.517 115.446C295.344 114.905 296.309 114.635 297.412 114.635C298.272 114.635 299.046 114.794 299.735 115.112C300.425 115.43 300.99 115.876 301.43 116.449C301.87 117.021 302.143 117.69 302.249 118.453H300.372C300.229 117.897 299.911 117.403 299.417 116.974C298.929 116.539 298.272 116.321 297.444 116.321C296.712 116.321 296.071 116.512 295.519 116.894C294.973 117.271 294.546 117.804 294.238 118.493C293.936 119.177 293.785 119.981 293.785 120.904C293.785 121.848 293.933 122.67 294.23 123.37C294.533 124.07 294.957 124.614 295.503 125.001C296.055 125.388 296.702 125.582 297.444 125.582C297.932 125.582 298.375 125.497 298.773 125.327C299.171 125.157 299.507 124.913 299.783 124.595C300.059 124.277 300.255 123.895 300.372 123.449H302.249C302.143 124.171 301.881 124.82 301.462 125.399C301.048 125.971 300.499 126.427 299.815 126.767C299.136 127.101 298.346 127.268 297.444 127.268ZM310.117 127.268C308.94 127.268 307.924 127.008 307.07 126.488C306.222 125.963 305.567 125.232 305.105 124.293C304.649 123.349 304.421 122.251 304.421 120.999C304.421 119.748 304.649 118.644 305.105 117.69C305.567 116.73 306.209 115.982 307.031 115.446C307.858 114.905 308.823 114.635 309.926 114.635C310.563 114.635 311.191 114.741 311.812 114.953C312.432 115.165 312.997 115.51 313.506 115.987C314.016 116.459 314.421 117.085 314.724 117.865C315.026 118.644 315.177 119.604 315.177 120.745V121.54H305.758V119.917H313.268C313.268 119.228 313.13 118.613 312.854 118.072C312.584 117.531 312.196 117.104 311.693 116.791C311.194 116.478 310.605 116.321 309.926 116.321C309.179 116.321 308.532 116.507 307.985 116.878C307.444 117.244 307.028 117.722 306.736 118.31C306.445 118.899 306.299 119.53 306.299 120.204V121.286C306.299 122.208 306.458 122.991 306.776 123.632C307.1 124.269 307.548 124.754 308.121 125.088C308.693 125.417 309.359 125.582 310.117 125.582C310.611 125.582 311.056 125.513 311.454 125.375C311.857 125.232 312.204 125.019 312.496 124.738C312.788 124.452 313.013 124.097 313.172 123.672L314.986 124.181C314.795 124.797 314.474 125.338 314.024 125.804C313.573 126.266 313.016 126.626 312.353 126.886C311.69 127.141 310.945 127.268 310.117 127.268Z" fill="#4DCDE4"/>
<g filter="url(#filter0_b_1312_39313)">
<circle cx="317.592" cy="241.159" r="13.1781" fill="white" fill-opacity="0.2"/>
</g>
<path d="M123.884 245.252V234.709H125.161V244.119H130.062V245.252H123.884ZM134.2 245.437C133.699 245.437 133.244 245.343 132.836 245.154C132.428 244.962 132.103 244.686 131.863 244.325C131.623 243.962 131.503 243.522 131.503 243.007C131.503 242.555 131.592 242.187 131.771 241.906C131.949 241.621 132.188 241.398 132.486 241.237C132.785 241.075 133.114 240.955 133.474 240.876C133.838 240.794 134.204 240.729 134.571 240.681C135.051 240.619 135.441 240.573 135.739 240.542C136.041 240.507 136.261 240.451 136.398 240.372C136.539 240.293 136.609 240.156 136.609 239.96V239.919C136.609 239.411 136.47 239.016 136.192 238.735C135.918 238.454 135.501 238.313 134.942 238.313C134.362 238.313 133.907 238.44 133.577 238.694C133.248 238.948 133.016 239.219 132.882 239.507L131.729 239.095C131.935 238.615 132.21 238.241 132.553 237.973C132.9 237.702 133.277 237.513 133.685 237.407C134.097 237.297 134.502 237.242 134.9 237.242C135.154 237.242 135.446 237.273 135.775 237.335C136.108 237.393 136.429 237.515 136.738 237.7C137.05 237.886 137.309 238.165 137.515 238.539C137.721 238.913 137.824 239.414 137.824 240.042V245.252H136.609V244.181H136.548C136.465 244.353 136.328 244.536 136.136 244.732C135.944 244.928 135.688 245.094 135.369 245.231C135.05 245.369 134.66 245.437 134.2 245.437ZM134.386 244.346C134.866 244.346 135.271 244.252 135.6 244.063C135.933 243.874 136.184 243.63 136.352 243.332C136.524 243.033 136.609 242.719 136.609 242.39V241.278C136.558 241.34 136.445 241.396 136.27 241.448C136.098 241.496 135.899 241.539 135.672 241.576C135.449 241.611 135.232 241.642 135.019 241.669C134.809 241.693 134.64 241.714 134.509 241.731C134.193 241.772 133.898 241.839 133.624 241.932C133.353 242.021 133.133 242.156 132.965 242.338C132.8 242.517 132.718 242.76 132.718 243.069C132.718 243.491 132.874 243.811 133.186 244.027C133.502 244.24 133.902 244.346 134.386 244.346ZM145.642 239.116L144.551 239.425C144.482 239.243 144.381 239.066 144.247 238.894C144.117 238.719 143.938 238.575 143.712 238.462C143.485 238.349 143.195 238.292 142.842 238.292C142.358 238.292 141.955 238.404 141.632 238.627C141.313 238.846 141.153 239.126 141.153 239.466C141.153 239.768 141.263 240.006 141.483 240.181C141.703 240.356 142.046 240.502 142.512 240.619L143.686 240.907C144.393 241.079 144.92 241.341 145.266 241.695C145.613 242.045 145.786 242.496 145.786 243.049C145.786 243.502 145.656 243.907 145.395 244.264C145.138 244.62 144.777 244.902 144.314 245.108C143.851 245.314 143.312 245.417 142.698 245.417C141.891 245.417 141.224 245.242 140.695 244.892C140.167 244.542 139.832 244.03 139.692 243.358L140.845 243.069C140.954 243.495 141.162 243.814 141.468 244.027C141.776 244.24 142.18 244.346 142.677 244.346C143.243 244.346 143.693 244.226 144.026 243.986C144.362 243.742 144.53 243.45 144.53 243.11C144.53 242.836 144.434 242.606 144.242 242.421C144.05 242.232 143.755 242.091 143.357 241.999L142.039 241.69C141.315 241.518 140.783 241.252 140.443 240.892C140.107 240.528 139.939 240.073 139.939 239.528C139.939 239.082 140.064 238.687 140.314 238.344C140.568 238.001 140.913 237.731 141.349 237.536C141.788 237.34 142.286 237.242 142.842 237.242C143.624 237.242 144.239 237.414 144.685 237.757C145.134 238.1 145.454 238.553 145.642 239.116ZM151.054 237.345V238.375H146.956V237.345H151.054ZM148.15 235.451H149.365V242.987C149.365 243.33 149.415 243.587 149.515 243.759C149.618 243.927 149.748 244.04 149.906 244.099C150.067 244.154 150.237 244.181 150.415 244.181C150.549 244.181 150.659 244.174 150.745 244.161C150.831 244.143 150.899 244.13 150.951 244.119L151.198 245.211C151.116 245.242 151.001 245.272 150.853 245.303C150.705 245.338 150.518 245.355 150.292 245.355C149.949 245.355 149.612 245.281 149.283 245.133C148.957 244.986 148.686 244.761 148.47 244.459C148.257 244.157 148.15 243.776 148.15 243.316V235.451ZM161.941 242.019V237.345H163.156V245.252H161.941V243.913H161.859C161.673 244.315 161.385 244.656 160.994 244.938C160.603 245.216 160.109 245.355 159.511 245.355C159.017 245.355 158.578 245.247 158.194 245.031C157.809 244.811 157.507 244.481 157.288 244.042C157.068 243.599 156.958 243.042 156.958 242.369V237.345H158.173V242.287C158.173 242.863 158.334 243.323 158.657 243.666C158.983 244.01 159.398 244.181 159.903 244.181C160.205 244.181 160.512 244.104 160.824 243.95C161.14 243.795 161.404 243.558 161.617 243.239C161.833 242.92 161.941 242.513 161.941 242.019ZM165.381 248.217V237.345H166.555V238.601H166.699C166.788 238.464 166.912 238.289 167.07 238.076C167.231 237.86 167.461 237.668 167.759 237.499C168.061 237.328 168.47 237.242 168.984 237.242C169.65 237.242 170.237 237.409 170.745 237.741C171.253 238.074 171.649 238.546 171.934 239.157C172.219 239.768 172.361 240.489 172.361 241.319C172.361 242.156 172.219 242.882 171.934 243.497C171.649 244.107 171.255 244.581 170.75 244.917C170.246 245.25 169.664 245.417 169.005 245.417C168.497 245.417 168.09 245.333 167.785 245.164C167.48 244.993 167.245 244.799 167.08 244.583C166.915 244.363 166.788 244.181 166.699 244.037H166.596V248.217H165.381ZM166.575 241.298C166.575 241.896 166.663 242.422 166.838 242.879C167.013 243.332 167.269 243.687 167.605 243.944C167.941 244.198 168.353 244.325 168.84 244.325C169.348 244.325 169.772 244.191 170.112 243.924C170.455 243.653 170.712 243.289 170.884 242.832C171.059 242.373 171.147 241.861 171.147 241.298C171.147 240.743 171.061 240.241 170.889 239.795C170.721 239.346 170.465 238.991 170.122 238.73C169.782 238.466 169.355 238.333 168.84 238.333C168.346 238.333 167.931 238.459 167.595 238.709C167.258 238.956 167.004 239.303 166.833 239.749C166.661 240.192 166.575 240.708 166.575 241.298ZM177.2 245.417C176.541 245.417 175.96 245.25 175.455 244.917C174.951 244.581 174.556 244.107 174.271 243.497C173.986 242.882 173.844 242.156 173.844 241.319C173.844 240.489 173.986 239.768 174.271 239.157C174.556 238.546 174.952 238.074 175.46 237.741C175.968 237.409 176.555 237.242 177.221 237.242C177.736 237.242 178.142 237.328 178.441 237.499C178.743 237.668 178.973 237.86 179.131 238.076C179.292 238.289 179.417 238.464 179.506 238.601H179.609V234.709H180.824V245.252H179.65V244.037H179.506C179.417 244.181 179.29 244.363 179.125 244.583C178.961 244.799 178.726 244.993 178.42 245.164C178.115 245.333 177.708 245.417 177.2 245.417ZM177.365 244.325C177.852 244.325 178.264 244.198 178.6 243.944C178.937 243.687 179.192 243.332 179.367 242.879C179.542 242.422 179.63 241.896 179.63 241.298C179.63 240.708 179.544 240.192 179.373 239.749C179.201 239.303 178.947 238.956 178.611 238.709C178.274 238.459 177.859 238.333 177.365 238.333C176.85 238.333 176.421 238.466 176.078 238.73C175.738 238.991 175.483 239.346 175.311 239.795C175.143 240.241 175.059 240.743 175.059 241.298C175.059 241.861 175.145 242.373 175.316 242.832C175.491 243.289 175.749 243.653 176.088 243.924C176.431 244.191 176.857 244.325 177.365 244.325ZM185.545 245.437C185.044 245.437 184.589 245.343 184.18 245.154C183.772 244.962 183.448 244.686 183.208 244.325C182.967 243.962 182.847 243.522 182.847 243.007C182.847 242.555 182.936 242.187 183.115 241.906C183.293 241.621 183.532 241.398 183.83 241.237C184.129 241.075 184.458 240.955 184.819 240.876C185.183 240.794 185.548 240.729 185.915 240.681C186.396 240.619 186.785 240.573 187.084 240.542C187.386 240.507 187.605 240.451 187.743 240.372C187.883 240.293 187.954 240.156 187.954 239.96V239.919C187.954 239.411 187.815 239.016 187.537 238.735C187.262 238.454 186.845 238.313 186.286 238.313C185.706 238.313 185.251 238.44 184.922 238.694C184.592 238.948 184.361 239.219 184.227 239.507L183.074 239.095C183.28 238.615 183.554 238.241 183.897 237.973C184.244 237.702 184.621 237.513 185.03 237.407C185.442 237.297 185.847 237.242 186.245 237.242C186.499 237.242 186.79 237.273 187.12 237.335C187.453 237.393 187.774 237.515 188.082 237.7C188.395 237.886 188.654 238.165 188.86 238.539C189.066 238.913 189.169 239.414 189.169 240.042V245.252H187.954V244.181H187.892C187.81 244.353 187.672 244.536 187.48 244.732C187.288 244.928 187.032 245.094 186.713 245.231C186.394 245.369 186.004 245.437 185.545 245.437ZM185.73 244.346C186.21 244.346 186.615 244.252 186.945 244.063C187.278 243.874 187.528 243.63 187.696 243.332C187.868 243.033 187.954 242.719 187.954 242.39V241.278C187.902 241.34 187.789 241.396 187.614 241.448C187.442 241.496 187.243 241.539 187.017 241.576C186.794 241.611 186.576 241.642 186.363 241.669C186.154 241.693 185.984 241.714 185.853 241.731C185.538 241.772 185.243 241.839 184.968 241.932C184.697 242.021 184.477 242.156 184.309 242.338C184.144 242.517 184.062 242.76 184.062 243.069C184.062 243.491 184.218 243.811 184.53 244.027C184.846 244.24 185.246 244.346 185.73 244.346ZM194.825 237.345V238.375H190.727V237.345H194.825ZM191.921 235.451H193.136V242.987C193.136 243.33 193.186 243.587 193.285 243.759C193.388 243.927 193.519 244.04 193.677 244.099C193.838 244.154 194.008 244.181 194.186 244.181C194.32 244.181 194.43 244.174 194.516 244.161C194.602 244.143 194.67 244.13 194.722 244.119L194.969 245.211C194.886 245.242 194.771 245.272 194.624 245.303C194.476 245.338 194.289 245.355 194.063 245.355C193.72 245.355 193.383 245.281 193.054 245.133C192.728 244.986 192.457 244.761 192.24 244.459C192.028 244.157 191.921 243.776 191.921 243.316V235.451ZM199.882 245.417C199.12 245.417 198.463 245.248 197.911 244.912C197.362 244.572 196.938 244.099 196.639 243.491C196.344 242.881 196.196 242.17 196.196 241.36C196.196 240.55 196.344 239.837 196.639 239.219C196.938 238.598 197.353 238.114 197.885 237.767C198.42 237.417 199.045 237.242 199.759 237.242C200.17 237.242 200.577 237.311 200.979 237.448C201.38 237.585 201.746 237.808 202.075 238.117C202.405 238.423 202.667 238.828 202.863 239.332C203.058 239.837 203.156 240.458 203.156 241.196V241.71H197.061V240.66H201.921C201.921 240.214 201.831 239.816 201.653 239.466C201.478 239.116 201.227 238.84 200.901 238.637C200.579 238.435 200.198 238.333 199.759 238.333C199.275 238.333 198.856 238.454 198.503 238.694C198.153 238.931 197.883 239.239 197.694 239.62C197.506 240.001 197.411 240.41 197.411 240.845V241.546C197.411 242.143 197.514 242.649 197.72 243.064C197.929 243.476 198.219 243.79 198.59 244.006C198.961 244.219 199.391 244.325 199.882 244.325C200.201 244.325 200.49 244.281 200.747 244.191C201.008 244.099 201.233 243.962 201.421 243.78C201.61 243.594 201.756 243.364 201.859 243.09L203.033 243.419C202.909 243.817 202.701 244.167 202.41 244.469C202.118 244.768 201.758 245.001 201.329 245.17C200.9 245.334 200.418 245.417 199.882 245.417ZM211.408 245.437C210.907 245.437 210.452 245.343 210.044 245.154C209.635 244.962 209.311 244.686 209.071 244.325C208.831 243.962 208.71 243.522 208.71 243.007C208.71 242.555 208.8 242.187 208.978 241.906C209.157 241.621 209.395 241.398 209.694 241.237C209.992 241.075 210.322 240.955 210.682 240.876C211.046 240.794 211.411 240.729 211.778 240.681C212.259 240.619 212.648 240.573 212.947 240.542C213.249 240.507 213.469 240.451 213.606 240.372C213.747 240.293 213.817 240.156 213.817 239.96V239.919C213.817 239.411 213.678 239.016 213.4 238.735C213.125 238.454 212.709 238.313 212.149 238.313C211.569 238.313 211.114 238.44 210.785 238.694C210.456 238.948 210.224 239.219 210.09 239.507L208.937 239.095C209.143 238.615 209.417 238.241 209.761 237.973C210.107 237.702 210.485 237.513 210.893 237.407C211.305 237.297 211.71 237.242 212.108 237.242C212.362 237.242 212.654 237.273 212.983 237.335C213.316 237.393 213.637 237.515 213.946 237.7C214.258 237.886 214.517 238.165 214.723 238.539C214.929 238.913 215.032 239.414 215.032 240.042V245.252H213.817V244.181H213.755C213.673 244.353 213.536 244.536 213.343 244.732C213.151 244.928 212.896 245.094 212.576 245.231C212.257 245.369 211.868 245.437 211.408 245.437ZM211.593 244.346C212.074 244.346 212.479 244.252 212.808 244.063C213.141 243.874 213.391 243.63 213.56 243.332C213.731 243.033 213.817 242.719 213.817 242.39V241.278C213.765 241.34 213.652 241.396 213.477 241.448C213.306 241.496 213.107 241.539 212.88 241.576C212.657 241.611 212.439 241.642 212.226 241.669C212.017 241.693 211.847 241.714 211.717 241.731C211.401 241.772 211.106 241.839 210.831 241.932C210.56 242.021 210.341 242.156 210.172 242.338C210.008 242.517 209.925 242.76 209.925 243.069C209.925 243.491 210.081 243.811 210.394 244.027C210.709 244.24 211.109 244.346 211.593 244.346ZM221.326 245.252V237.345H222.5V238.58H222.603C222.768 238.158 223.033 237.831 223.401 237.597C223.768 237.36 224.209 237.242 224.724 237.242C225.245 237.242 225.679 237.36 226.026 237.597C226.376 237.831 226.649 238.158 226.844 238.58H226.927C227.129 238.172 227.433 237.848 227.838 237.608C228.243 237.364 228.729 237.242 229.295 237.242C230.002 237.242 230.58 237.463 231.03 237.906C231.479 238.345 231.704 239.03 231.704 239.96V245.252H230.489V239.96C230.489 239.377 230.329 238.96 230.01 238.709C229.691 238.459 229.315 238.333 228.883 238.333C228.327 238.333 227.896 238.502 227.591 238.838C227.285 239.171 227.133 239.593 227.133 240.104V245.252H225.897V239.837C225.897 239.387 225.751 239.025 225.46 238.75C225.168 238.472 224.792 238.333 224.332 238.333C224.017 238.333 223.722 238.417 223.447 238.586C223.176 238.754 222.956 238.987 222.788 239.286C222.623 239.581 222.541 239.922 222.541 240.31V245.252H221.326ZM233.925 245.252V237.345H235.14V245.252H233.925ZM234.543 236.027C234.306 236.027 234.102 235.947 233.93 235.785C233.762 235.624 233.678 235.43 233.678 235.204C233.678 234.977 233.762 234.783 233.93 234.622C234.102 234.461 234.306 234.38 234.543 234.38C234.78 234.38 234.982 234.461 235.15 234.622C235.322 234.783 235.408 234.977 235.408 235.204C235.408 235.43 235.322 235.624 235.15 235.785C234.982 235.947 234.78 236.027 234.543 236.027ZM238.58 240.495V245.252H237.365V237.345H238.539V238.58H238.642C238.827 238.179 239.108 237.856 239.486 237.613C239.863 237.366 240.351 237.242 240.948 237.242C241.483 237.242 241.952 237.352 242.353 237.572C242.755 237.788 243.067 238.117 243.29 238.56C243.513 238.999 243.625 239.555 243.625 240.228V245.252H242.41V240.31C242.41 239.689 242.249 239.205 241.926 238.858C241.603 238.508 241.161 238.333 240.598 238.333C240.21 238.333 239.863 238.417 239.558 238.586C239.256 238.754 239.017 238.999 238.842 239.322C238.667 239.644 238.58 240.036 238.58 240.495ZM250.828 242.019V237.345H252.042V245.252H250.828V243.913H250.745C250.56 244.315 250.272 244.656 249.88 244.938C249.489 245.216 248.995 245.355 248.398 245.355C247.904 245.355 247.464 245.247 247.08 245.031C246.696 244.811 246.394 244.481 246.174 244.042C245.954 243.599 245.845 243.042 245.845 242.369V237.345H247.059V242.287C247.059 242.863 247.221 243.323 247.543 243.666C247.869 244.01 248.285 244.181 248.789 244.181C249.091 244.181 249.398 244.104 249.711 243.95C250.026 243.795 250.29 243.558 250.503 243.239C250.719 242.92 250.828 242.513 250.828 242.019ZM257.706 237.345V238.375H253.609V237.345H257.706ZM254.803 235.451H256.018V242.987C256.018 243.33 256.067 243.587 256.167 243.759C256.27 243.927 256.4 244.04 256.558 244.099C256.72 244.154 256.889 244.181 257.068 244.181C257.202 244.181 257.312 244.174 257.397 244.161C257.483 244.143 257.552 244.13 257.603 244.119L257.85 245.211C257.768 245.242 257.653 245.272 257.505 245.303C257.358 245.338 257.171 245.355 256.944 245.355C256.601 245.355 256.265 245.281 255.935 245.133C255.609 244.986 255.338 244.761 255.122 244.459C254.909 244.157 254.803 243.776 254.803 243.316V235.451ZM262.764 245.417C262.002 245.417 261.345 245.248 260.792 244.912C260.243 244.572 259.819 244.099 259.521 243.491C259.226 242.881 259.078 242.17 259.078 241.36C259.078 240.55 259.226 239.837 259.521 239.219C259.819 238.598 260.235 238.114 260.766 237.767C261.302 237.417 261.926 237.242 262.64 237.242C263.052 237.242 263.459 237.311 263.86 237.448C264.262 237.585 264.627 237.808 264.957 238.117C265.286 238.423 265.549 238.828 265.744 239.332C265.94 239.837 266.038 240.458 266.038 241.196V241.71H259.943V240.66H264.802C264.802 240.214 264.713 239.816 264.535 239.466C264.36 239.116 264.109 238.84 263.783 238.637C263.46 238.435 263.079 238.333 262.64 238.333C262.156 238.333 261.738 238.454 261.384 238.694C261.034 238.931 260.765 239.239 260.576 239.62C260.387 240.001 260.293 240.41 260.293 240.845V241.546C260.293 242.143 260.396 242.649 260.602 243.064C260.811 243.476 261.101 243.79 261.472 244.006C261.842 244.219 262.273 244.325 262.764 244.325C263.083 244.325 263.371 244.281 263.629 244.191C263.889 244.099 264.114 243.962 264.303 243.78C264.492 243.594 264.638 243.364 264.74 243.09L265.914 243.419C265.791 243.817 265.583 244.167 265.291 244.469C265 244.768 264.639 245.001 264.21 245.17C263.781 245.334 263.299 245.417 262.764 245.417ZM274.289 245.437C273.788 245.437 273.334 245.343 272.925 245.154C272.517 244.962 272.193 244.686 271.952 244.325C271.712 243.962 271.592 243.522 271.592 243.007C271.592 242.555 271.681 242.187 271.86 241.906C272.038 241.621 272.277 241.398 272.575 241.237C272.874 241.075 273.203 240.955 273.564 240.876C273.927 240.794 274.293 240.729 274.66 240.681C275.141 240.619 275.53 240.573 275.829 240.542C276.131 240.507 276.35 240.451 276.488 240.372C276.628 240.293 276.699 240.156 276.699 239.96V239.919C276.699 239.411 276.56 239.016 276.282 238.735C276.007 238.454 275.59 238.313 275.031 238.313C274.451 238.313 273.996 238.44 273.667 238.694C273.337 238.948 273.105 239.219 272.972 239.507L271.819 239.095C272.024 238.615 272.299 238.241 272.642 237.973C272.989 237.702 273.366 237.513 273.775 237.407C274.187 237.297 274.591 237.242 274.99 237.242C275.243 237.242 275.535 237.273 275.865 237.335C276.198 237.393 276.518 237.515 276.827 237.7C277.14 237.886 277.399 238.165 277.605 238.539C277.81 238.913 277.913 239.414 277.913 240.042V245.252H276.699V244.181H276.637C276.554 244.353 276.417 244.536 276.225 244.732C276.033 244.928 275.777 245.094 275.458 245.231C275.139 245.369 274.749 245.437 274.289 245.437ZM274.475 244.346C274.955 244.346 275.36 244.252 275.69 244.063C276.023 243.874 276.273 243.63 276.441 243.332C276.613 243.033 276.699 242.719 276.699 242.39V241.278C276.647 241.34 276.534 241.396 276.359 241.448C276.187 241.496 275.988 241.539 275.762 241.576C275.539 241.611 275.321 241.642 275.108 241.669C274.899 241.693 274.729 241.714 274.598 241.731C274.283 241.772 273.987 241.839 273.713 241.932C273.442 242.021 273.222 242.156 273.054 242.338C272.889 242.517 272.807 242.76 272.807 243.069C272.807 243.491 272.963 243.811 273.275 244.027C273.591 244.24 273.991 244.346 274.475 244.346ZM283.322 248.382C282.736 248.382 282.231 248.306 281.809 248.155C281.387 248.008 281.035 247.812 280.754 247.568C280.476 247.328 280.254 247.071 280.09 246.796L281.057 246.117C281.167 246.261 281.306 246.426 281.474 246.611C281.642 246.8 281.872 246.963 282.164 247.1C282.459 247.241 282.845 247.311 283.322 247.311C283.961 247.311 284.487 247.157 284.903 246.848C285.318 246.539 285.526 246.055 285.526 245.396V243.79H285.423C285.333 243.934 285.206 244.113 285.042 244.325C284.88 244.535 284.647 244.722 284.342 244.886C284.04 245.048 283.631 245.128 283.116 245.128C282.478 245.128 281.905 244.977 281.397 244.675C280.893 244.373 280.493 243.934 280.198 243.358C279.906 242.781 279.76 242.081 279.76 241.257C279.76 240.447 279.903 239.742 280.187 239.142C280.472 238.538 280.869 238.071 281.377 237.741C281.884 237.409 282.471 237.242 283.137 237.242C283.652 237.242 284.06 237.328 284.362 237.499C284.668 237.668 284.901 237.86 285.062 238.076C285.227 238.289 285.354 238.464 285.443 238.601H285.567V237.345H286.74V245.478C286.74 246.158 286.586 246.71 286.277 247.136C285.972 247.565 285.56 247.879 285.042 248.078C284.527 248.28 283.954 248.382 283.322 248.382ZM283.281 244.037C283.768 244.037 284.18 243.926 284.517 243.702C284.853 243.479 285.109 243.158 285.284 242.74C285.459 242.321 285.546 241.82 285.546 241.237C285.546 240.667 285.46 240.164 285.289 239.728C285.117 239.293 284.863 238.951 284.527 238.704C284.191 238.457 283.775 238.333 283.281 238.333C282.766 238.333 282.337 238.464 281.994 238.725C281.655 238.985 281.399 239.335 281.227 239.775C281.059 240.214 280.975 240.701 280.975 241.237C280.975 241.786 281.061 242.271 281.232 242.693C281.407 243.112 281.665 243.442 282.005 243.682C282.348 243.919 282.773 244.037 283.281 244.037ZM292.176 245.417C291.463 245.417 290.836 245.247 290.297 244.907C289.762 244.567 289.343 244.092 289.041 243.481C288.743 242.87 288.594 242.156 288.594 241.34C288.594 240.516 288.743 239.797 289.041 239.183C289.343 238.568 289.762 238.091 290.297 237.752C290.836 237.412 291.463 237.242 292.176 237.242C292.89 237.242 293.515 237.412 294.05 237.752C294.589 238.091 295.008 238.568 295.306 239.183C295.608 239.797 295.759 240.516 295.759 241.34C295.759 242.156 295.608 242.87 295.306 243.481C295.008 244.092 294.589 244.567 294.05 244.907C293.515 245.247 292.89 245.417 292.176 245.417ZM292.176 244.325C292.719 244.325 293.165 244.186 293.515 243.908C293.865 243.63 294.124 243.265 294.292 242.812C294.46 242.359 294.544 241.868 294.544 241.34C294.544 240.811 294.46 240.319 294.292 239.862C294.124 239.406 293.865 239.037 293.515 238.756C293.165 238.474 292.719 238.333 292.176 238.333C291.634 238.333 291.188 238.474 290.838 238.756C290.488 239.037 290.229 239.406 290.061 239.862C289.893 240.319 289.808 240.811 289.808 241.34C289.808 241.868 289.893 242.359 290.061 242.812C290.229 243.265 290.488 243.63 290.838 243.908C291.188 244.186 291.634 244.325 292.176 244.325Z" fill="#E9EBEE"/>
<g clip-path="url(#clip0_1312_39313)">
<path d="M325.145 241.159C325.145 242.697 324.685 244.127 323.897 245.32L321.657 241.29H323.739H323.871L323.871 241.159C323.871 239.927 323.509 238.723 322.83 237.695C322.152 236.668 321.186 235.863 320.053 235.38C318.92 234.897 317.67 234.758 316.459 234.979C315.303 235.191 314.232 235.722 313.364 236.51L312.732 235.372C314.091 234.228 315.811 233.601 317.589 233.603H317.59C321.762 233.603 325.145 236.986 325.145 241.159ZM310.034 241.159C310.034 239.621 310.494 238.19 311.282 236.997L313.522 241.027H311.44H311.308L311.308 241.159C311.308 242.39 311.67 243.595 312.349 244.622C313.028 245.649 313.993 246.455 315.126 246.938C316.259 247.421 317.509 247.56 318.72 247.338C319.876 247.127 320.948 246.596 321.815 245.807L322.447 246.945C321.089 248.089 319.368 248.717 317.59 248.714H317.59C313.417 248.714 310.034 245.332 310.034 241.159Z" fill="white" stroke="white" stroke-width="0.263562"/>
</g>
<circle cx="445.534" cy="77.5342" r="36.2397" fill="#7BBB42" stroke="#F6FDFF" stroke-width="6.58904"/>
<path d="M443.263 93.5891V72.3852H435.881V68.5221C438.141 68.5221 440.087 68.1215 441.718 67.3203C443.349 66.5191 444.322 65.26 444.637 63.5431H448.629V93.5891H443.263Z" fill="white"/>
<path d="M74.0172 330.84C75.335 314.807 86.7999 282.74 122.117 282.74C102.789 273.955 60.9709 259.679 48.3199 272.857C35.669 286.035 60.1802 317.003 74.0172 330.84Z" fill="#172B4D"/>
<ellipse opacity="0.2" cx="227.324" cy="376.893" rx="156.16" ry="18.4493" fill="url(#paint0_radial_1312_39313)"/>
<defs>
<filter id="filter0_b_1312_39313" x="238.524" y="162.09" width="158.136" height="158.137" filterUnits="userSpaceOnUse" color-interpolation-filters="sRGB">
<feFlood flood-opacity="0" result="BackgroundImageFix"/>
<feGaussianBlur in="BackgroundImage" stdDeviation="32.9452"/>
<feComposite in2="SourceAlpha" operator="in" result="effect1_backgroundBlur_1312_39313"/>
<feBlend mode="normal" in="SourceGraphic" in2="effect1_backgroundBlur_1312_39313" result="shape"/>
</filter>
<radialGradient id="paint0_radial_1312_39313" cx="0" cy="0" r="1" gradientUnits="userSpaceOnUse" gradientTransform="translate(227.324 376.893) rotate(90) scale(18.4493 156.16)">
<stop stop-color="#555555"/>
<stop offset="1" stop-color="#C4C4C4" stop-opacity="0"/>
</radialGradient>
<clipPath id="clip0_1312_39313">
<rect width="18.4493" height="18.4493" fill="white" transform="translate(308.367 231.934)"/>
</clipPath>
</defs>
</svg>
