<svg width="24" height="25" viewBox="0 0 24 25" fill="none" xmlns="http://www.w3.org/2000/svg">
<path fill-rule="evenodd" clip-rule="evenodd" d="M12 24.5789C18.6274 24.5789 24 19.2063 24 12.5789C24 5.95144 18.6274 0.578857 12 0.578857C5.37258 0.578857 0 5.95144 0 12.5789C0 19.2063 5.37258 24.5789 12 24.5789ZM6.81361 15.5981L6.00241 18.5788L8.98201 17.7659C9.898 18.3 10.9397 18.5806 12 18.5788C15.3138 18.5788 18 15.8927 18 12.5789C18 9.26506 15.3138 6.57886 12 6.57886C8.68621 6.57886 6.00001 9.26506 6.00001 12.5789C5.99827 13.6396 6.27909 14.6818 6.81361 15.5981ZM9.61201 9.82366C9.68141 9.78887 9.75712 9.76847 9.83461 9.76366V9.76306C9.91509 9.75745 9.99583 9.75665 10.0764 9.76066C10.1088 9.76305 10.1412 9.76665 10.1736 9.77026C10.269 9.78166 10.374 9.83926 10.4094 9.91965C10.5882 10.3253 10.7622 10.7339 10.9302 11.1443C10.9674 11.2349 10.9452 11.3519 10.8744 11.4659C10.8257 11.5431 10.7731 11.6178 10.7166 11.6897C10.6488 11.7761 10.503 11.9357 10.503 11.9357C10.503 11.9357 10.4436 12.0065 10.4664 12.0947C10.4816 12.138 10.5022 12.1794 10.5276 12.2177L10.563 12.2747C10.7332 12.5537 10.939 12.8094 11.175 13.0355C11.1944 13.0542 11.2137 13.0731 11.2329 13.0921C11.2852 13.1434 11.3376 13.1948 11.3928 13.2431C11.6737 13.4908 11.9915 13.6932 12.3348 13.8431L12.3378 13.8443C12.3526 13.8507 12.3652 13.8562 12.3775 13.8617C12.4078 13.875 12.4361 13.8875 12.489 13.9097C12.5262 13.9256 12.5645 13.9388 12.6036 13.9493C12.644 13.9596 12.6866 13.9578 12.7259 13.9439C12.7652 13.93 12.7995 13.9047 12.8244 13.8713C13.2582 13.3457 13.2984 13.3115 13.3014 13.3115V13.3127C13.3316 13.2845 13.3674 13.2631 13.4066 13.25C13.4457 13.2369 13.4872 13.2322 13.5282 13.2365C13.5648 13.2381 13.6008 13.2464 13.6344 13.2611C13.953 13.4063 14.475 13.6337 14.475 13.6337L14.8242 13.7903C14.8824 13.8185 14.9358 13.8851 14.9382 13.9493C14.9383 13.9515 14.9384 13.9538 14.9385 13.9563C14.9404 13.9969 14.9434 14.0609 14.9298 14.1731C14.9106 14.3285 14.8638 14.5151 14.817 14.6129C14.784 14.6819 14.7408 14.7425 14.691 14.7941C14.6238 14.8643 14.574 14.9069 14.493 14.9669C14.4438 15.0041 14.418 15.0209 14.418 15.0209C14.3346 15.0737 14.2878 15.1001 14.1882 15.1529C14.0338 15.2351 13.8631 15.2824 13.6884 15.2915C13.669 15.2924 13.6496 15.2934 13.6302 15.2944C13.5382 15.2993 13.4465 15.3042 13.3548 15.2993L13.0134 15.2471C12.1604 15.0227 11.3714 14.6023 10.7094 14.0195C10.5963 13.9194 10.4899 13.8131 10.3829 13.706C10.3622 13.6853 10.3414 13.6646 10.3206 13.6439C9.78721 13.1129 9.38341 12.5399 9.13801 11.9987C9.01801 11.7311 8.94121 11.4449 8.94001 11.1509C8.93797 10.7869 9.05725 10.4327 9.27901 10.1441C9.28565 10.1354 9.29223 10.1267 9.29886 10.118C9.33591 10.069 9.37453 10.018 9.43561 9.96045C9.4875 9.90659 9.54692 9.86051 9.61201 9.82366Z" fill="white"/>
</svg>
